<svg xmlns="http://www.w3.org/2000/svg" width="23.91" height="26" viewBox="0 0 23.91 26">
  <metadata><?xpacket begin="﻿" id="W5M0MpCehiHzreSzNTczkc9d"?>
<x:xmpmeta xmlns:x="adobe:ns:meta/" x:xmptk="Adobe XMP Core 5.6-c142 79.160924, 2017/07/13-01:06:39        ">
   <rdf:RDF xmlns:rdf="http://www.w3.org/1999/02/22-rdf-syntax-ns#">
      <rdf:Description rdf:about=""/>
   </rdf:RDF>
</x:xmpmeta>
                                                                                                    
                                                                                                    
                                                                                                    
                                                                                                    
                                                                                                    
                                                                                                    
                                                                                                    
                                                                                                    
                                                                                                    
                                                                                                    
                                                                                                    
                                                                                                    
                                                                                                    
                                                                                                    
                                                                                                    
                                                                                                    
                                                                                                    
                                                                                                    
                                                                                                    
                                                                                                    
                           
<?xpacket end="w"?></metadata>
<defs>
    <style>
      .cls-1 {
        fill: #d9d9d9;
        fill-rule: evenodd;
      }
    </style>
  </defs>
  <path id="earse" class="cls-1" d="M1672.68,1000.81h-5.52a1.2,1.2,0,0,0-1.13-.81h-3.96a1.21,1.21,0,0,0-1.13.81h-5.51a3.361,3.361,0,0,0-3.33,3.39v3.07a1.217,1.217,0,0,0,1.2,1.23h0.52v16.28a1.208,1.208,0,0,0,1.2,1.22h18.07a1.214,1.214,0,0,0,1.2-1.22V1008.5h0.51a1.217,1.217,0,0,0,1.2-1.23v-3.07A3.359,3.359,0,0,0,1672.68,1000.81Zm-0.8,22.74h-15.66V1008.5h15.66v15.05Zm1.72-17.5h-19.09v-1.85a0.928,0.928,0,0,1,.92-0.94h17.25a0.935,0.935,0,0,1,.92.94v1.85h0Zm-12.7,14.46a1.208,1.208,0,0,0,1.2-1.22v-6.4a1.2,1.2,0,1,0-2.4,0v6.4A1.214,1.214,0,0,0,1660.9,1020.51Zm6.3,0a1.214,1.214,0,0,0,1.2-1.22v-6.4a1.2,1.2,0,1,0-2.4,0v6.4A1.214,1.214,0,0,0,1667.2,1020.51Z" transform="translate(-1652.09 -1000)"/>
</svg>
