<svg xmlns="http://www.w3.org/2000/svg" width="25.06" height="25.38" viewBox="0 0 25.06 25.38">
  <metadata><?xpacket begin="﻿" id="W5M0MpCehiHzreSzNTczkc9d"?>
<x:xmpmeta xmlns:x="adobe:ns:meta/" x:xmptk="Adobe XMP Core 5.6-c142 79.160924, 2017/07/13-01:06:39        ">
   <rdf:RDF xmlns:rdf="http://www.w3.org/1999/02/22-rdf-syntax-ns#">
      <rdf:Description rdf:about=""/>
   </rdf:RDF>
</x:xmpmeta>
                                                                                                    
                                                                                                    
                                                                                                    
                                                                                                    
                                                                                                    
                                                                                                    
                                                                                                    
                                                                                                    
                                                                                                    
                                                                                                    
                                                                                                    
                                                                                                    
                                                                                                    
                                                                                                    
                                                                                                    
                                                                                                    
                                                                                                    
                                                                                                    
                                                                                                    
                                                                                                    
                           
<?xpacket end="w"?></metadata>
<defs>
    <style>
      .cls-1 {
        fill: #d9d9d9;
        fill-rule: evenodd;
      }
    </style>
  </defs>
  <path id="edit" class="cls-1" d="M1574.03,1019.06l-0.03,5.22a1.167,1.167,0,0,0,.32.81,1.057,1.057,0,0,0,.77.32h0l5.14-.03a1.013,1.013,0,0,0,.76-0.32l17.75-17.96a1.129,1.129,0,0,0,0-1.58l-5.08-5.2a1.12,1.12,0,0,0-1.57,0l-3.55,3.62h0l-14.2,14.34A1.208,1.208,0,0,0,1574.03,1019.06Zm18.86-16.38,3.57,3.62-2.01,2.04-3.57-3.62Zm-16.66,16.86,13.08-13.24,3.58,3.62-13.09,13.21-3.6.03Z" transform="translate(-1574 -1000.03)"/>
</svg>
