<svg xmlns="http://www.w3.org/2000/svg" width="23" height="23" viewBox="0 0 23 23">
  <metadata><?xpacket begin="﻿" id="W5M0MpCehiHzreSzNTczkc9d"?>
<x:xmpmeta xmlns:x="adobe:ns:meta/" x:xmptk="Adobe XMP Core 5.6-c142 79.160924, 2017/07/13-01:06:39        ">
   <rdf:RDF xmlns:rdf="http://www.w3.org/1999/02/22-rdf-syntax-ns#">
      <rdf:Description rdf:about=""/>
   </rdf:RDF>
</x:xmpmeta>
                                                                                                    
                                                                                                    
                                                                                                    
                                                                                                    
                                                                                                    
                                                                                                    
                                                                                                    
                                                                                                    
                                                                                                    
                                                                                                    
                                                                                                    
                                                                                                    
                                                                                                    
                                                                                                    
                                                                                                    
                                                                                                    
                                                                                                    
                                                                                                    
                                                                                                    
                                                                                                    
                           
<?xpacket end="w"?></metadata>
<defs>
    <style>
      .cls-1 {
        fill: #b4bcc3;
        fill-rule: evenodd;
      }
    </style>
  </defs>
  <path id="loading_icon" data-name="loading icon" class="cls-1" d="M842.5,1940a1.157,1.157,0,0,0-1.177,1.13v4.3a1.178,1.178,0,0,0,2.354,0v-4.3A1.157,1.157,0,0,0,842.5,1940Zm-5.413,2.45a1.2,1.2,0,0,0-1.645-.25,1.091,1.091,0,0,0-.26,1.57l2.642,3.48a1.2,1.2,0,0,0,1.645.25,1.091,1.091,0,0,0,.26-1.57Zm-5.251,6.92,4.275,1.33a1.139,1.139,0,0,0,.364.05,1.17,1.17,0,0,0,1.119-.78,1.121,1.121,0,0,0-.756-1.42l-4.274-1.33a1.188,1.188,0,0,0-1.484.73A1.122,1.122,0,0,0,831.836,1949.37Zm5.758,3.66a1.187,1.187,0,0,0-1.483-.73l-4.275,1.33a1.122,1.122,0,0,0-.756,1.42,1.17,1.17,0,0,0,1.119.78,1.528,1.528,0,0,0,.365-0.05l4.274-1.33a1.121,1.121,0,0,0,.756-1.42h0Zm1.874,2.47a1.2,1.2,0,0,0-1.644.25l-2.642,3.48a1.09,1.09,0,0,0,.26,1.57,1.2,1.2,0,0,0,1.645-.25l2.642-3.48A1.091,1.091,0,0,0,839.468,1955.5Zm3.032,0.94a1.15,1.15,0,0,0-1.177,1.13v4.3a1.178,1.178,0,0,0,2.354,0v-4.3A1.15,1.15,0,0,0,842.5,1956.44Zm4.676-.69a1.2,1.2,0,0,0-1.644-.25,1.09,1.09,0,0,0-.26,1.57l2.642,3.48a1.2,1.2,0,0,0,1.645.25,1.09,1.09,0,0,0,.26-1.57l-2.643-3.48h0Zm5.989-2.12-4.275-1.33a1.187,1.187,0,0,0-1.483.73,1.121,1.121,0,0,0,.755,1.42l4.275,1.33a1.52,1.52,0,0,0,.364.05,1.169,1.169,0,0,0,1.119-.78A1.118,1.118,0,0,0,853.165,1953.63Zm-5.758-3.66a1.169,1.169,0,0,0,1.119.78,1.147,1.147,0,0,0,.364-0.05l4.275-1.33a1.122,1.122,0,0,0,.755-1.42,1.187,1.187,0,0,0-1.483-.73l-4.275,1.33A1.121,1.121,0,0,0,847.407,1949.97Zm-1.875-2.47a1.2,1.2,0,0,0,1.645-.25l2.642-3.48a1.09,1.09,0,0,0-.26-1.57,1.2,1.2,0,0,0-1.644.25l-2.642,3.48A1.089,1.089,0,0,0,845.532,1947.5Z" transform="translate(-831 -1940)"/>
</svg>
