<svg xmlns="http://www.w3.org/2000/svg" width="29" height="29" viewBox="0 0 29 29">
  <metadata><?xpacket begin="﻿" id="W5M0MpCehiHzreSzNTczkc9d"?>
<x:xmpmeta xmlns:x="adobe:ns:meta/" x:xmptk="Adobe XMP Core 5.6-c142 79.160924, 2017/07/13-01:06:39        ">
   <rdf:RDF xmlns:rdf="http://www.w3.org/1999/02/22-rdf-syntax-ns#">
      <rdf:Description rdf:about=""/>
   </rdf:RDF>
</x:xmpmeta>
                                                                                                    
                                                                                                    
                                                                                                    
                                                                                                    
                                                                                                    
                                                                                                    
                                                                                                    
                                                                                                    
                                                                                                    
                                                                                                    
                                                                                                    
                                                                                                    
                                                                                                    
                                                                                                    
                                                                                                    
                                                                                                    
                                                                                                    
                                                                                                    
                                                                                                    
                                                                                                    
                           
<?xpacket end="w"?></metadata>
<defs>
    <style>
      .cls-1 {
        fill: #4a90e2;
        fill-rule: evenodd;
      }
    </style>
  </defs>
  <path id="search_copy" data-name="search copy" class="cls-1" d="M1640.26,81.746a12.727,12.727,0,0,0-9.04-3.739h0a12.772,12.772,0,0,0-11,19.276l-4.33,4.324a3.1,3.1,0,0,0,0,4.366l0.12,0.115a3.093,3.093,0,0,0,4.37,0l4.33-4.325A12.773,12.773,0,0,0,1640.26,81.746Zm-21.44,22.783a0.884,0.884,0,0,1-1.25,0l-0.12-.115a0.9,0.9,0,0,1,0-1.248l4.08-4.071q0.315,0.364.66,0.707c0.22,0.228.46,0.447,0.7,0.656Zm19.88-6.286a10.571,10.571,0,1,1,3.09-7.469A10.529,10.529,0,0,1,1638.7,98.243Z" transform="translate(-1615 -78)"/>
</svg>
